<?xml version="1.0" encoding="utf-8"?>
<svg xmlns="http://www.w3.org/2000/svg" fill="none" height="100%" overflow="visible" preserveAspectRatio="none" style="display: block;" viewBox="0 0 24 24" width="100%">
<g id="Frame">
<path d="M18.759 13.1471C18.0793 13.1471 17.4061 13.281 16.7781 13.5411C16.15 13.8012 15.5794 14.1825 15.0987 14.6632C14.618 15.1439 14.2367 15.7145 13.9766 16.3426C13.7165 16.9706 13.5826 17.6437 13.5826 18.3235C13.5826 19.0033 13.7165 19.6764 13.9766 20.3045C14.2367 20.9325 14.618 21.5032 15.0987 21.9838C15.5794 22.4645 16.15 22.8458 16.7781 23.106C17.4061 23.3661 18.0793 23.5 18.759 23.5C20.1319 23.5 21.4486 22.9546 22.4194 21.9838C23.3901 21.0131 23.9355 19.6964 23.9355 18.3235C23.9355 16.9506 23.3901 15.634 22.4194 14.6632C21.4486 13.6924 20.1319 13.1471 18.759 13.1471ZM5.31211 13.1471C4.62636 13.1376 3.94558 13.2646 3.3093 13.5205C2.67303 13.7764 2.09395 14.1562 1.60571 14.6378C1.11747 15.1195 0.7298 15.6933 0.46522 16.326C0.200641 16.9587 0.0644275 17.6377 0.0644932 18.3235C0.0645589 19.0093 0.200902 19.6883 0.465603 20.321C0.730303 20.9537 1.11808 21.5274 1.60642 22.0089C2.09475 22.4905 2.6739 22.8702 3.31022 23.126C3.94655 23.3818 4.62736 23.5086 5.3131 23.499C6.67345 23.48 7.97164 22.9263 8.92687 21.9576C9.8821 20.9889 10.4176 19.683 10.4174 18.3225C10.4173 16.9621 9.88159 15.6563 8.92618 14.6878C7.97076 13.7192 6.67246 13.1658 5.31211 13.1471ZM17.212 6.67647C17.212 7.35625 17.0782 8.02938 16.818 8.65742C16.5579 9.28546 16.1766 9.85611 15.6959 10.3368C15.2152 10.8175 14.6446 11.1988 14.0165 11.4589C13.3885 11.719 12.7154 11.8529 12.0356 11.8529C11.3558 11.8529 10.6827 11.719 10.0546 11.4589C9.42659 11.1988 8.85594 10.8175 8.37526 10.3368C7.89458 9.85611 7.51328 9.28546 7.25314 8.65742C6.993 8.02938 6.8591 7.35625 6.8591 6.67647C6.8591 5.30359 7.40448 3.98693 8.37526 3.01615C9.34603 2.04538 10.6627 1.5 12.0356 1.5C13.4085 1.5 14.7251 2.04538 15.6959 3.01615C16.6667 3.98693 17.212 5.30359 17.212 6.67647Z" fill="var(--fill-0, #FF584A)" id="Vector"/>
</g>
</svg>