<?xml version="1.0" encoding="utf-8"?>
<svg xmlns="http://www.w3.org/2000/svg" fill="none" height="100%" overflow="visible" preserveAspectRatio="none" style="display: block;" viewBox="0 0 24 24" width="100%">
<g clip-path="url(#clip0_0_837)" id="Frame">
<path d="M11.3231 4.39358L11.3285 4.38758C11.5679 4.14189 11.7014 3.81209 11.7001 3.46906C11.6989 3.12604 11.5631 2.79719 11.322 2.55323C11.2037 2.43334 11.0626 2.33828 10.907 2.27361C10.7515 2.20895 10.5846 2.17598 10.4162 2.17664C10.2477 2.1773 10.0811 2.21158 9.92605 2.27746C9.77101 2.34334 9.63069 2.43951 9.5133 2.56032L7.74497 4.36793C7.58155 4.51866 7.45112 4.7016 7.36191 4.90524C7.27271 5.10887 7.22665 5.32878 7.22665 5.55109C7.22665 5.77341 7.27271 5.99332 7.36191 6.19695C7.45112 6.40058 7.58155 6.58353 7.74497 6.73425L9.5133 8.54241C9.6308 8.66306 9.77118 8.75906 9.92623 8.82481C10.0813 8.89056 10.2479 8.92474 10.4163 8.92535C10.5847 8.92596 10.7515 8.89299 10.907 8.82836C11.0626 8.76373 11.2036 8.66875 11.322 8.54896C11.501 8.36799 11.6234 8.13877 11.6741 7.88934C11.7249 7.63992 11.7019 7.3811 11.6079 7.14455C12.7384 7.56667 13.686 8.37026 14.2872 9.4166C14.8883 10.4629 15.1053 11.6863 14.9005 12.8756C14.6958 14.0648 14.0823 15.1452 13.1658 15.9303C12.2494 16.7154 11.0876 17.1559 9.88104 17.1756H1.27837C0.93894 17.1826 0.615759 17.3223 0.378169 17.5648C0.140579 17.8074 0.00750898 18.1333 0.00750898 18.4728C0.00750898 18.8123 0.140579 19.1383 0.378169 19.3808C0.615759 19.6233 0.93894 19.7631 1.27837 19.77H9.88104C11.7954 19.7414 13.6317 19.0068 15.0377 17.7072C16.4436 16.4075 17.32 14.6345 17.4988 12.7283C17.6775 10.8221 17.146 8.91702 16.0063 7.37868C14.8665 5.84033 13.1987 4.7771 11.3231 4.39303V4.39358Z" fill="var(--fill-0, #2C2C2C)" id="Vector"/>
<path d="M4.40582 15.7969C4.61793 15.7967 4.82666 15.7437 5.0132 15.6427C5.19975 15.5418 5.35825 15.396 5.47445 15.2185C5.59064 15.0411 5.66087 14.8375 5.67882 14.6262C5.69676 14.4148 5.66186 14.2023 5.57725 14.0078C5.19897 13.1341 5.07265 12.1721 5.21255 11.2303C5.35246 10.2886 5.75301 9.4048 6.36893 8.67882C6.4777 8.55092 6.56021 8.40285 6.61175 8.24307C6.66329 8.08328 6.68286 7.91491 6.66933 7.74757C6.65581 7.58022 6.60945 7.41718 6.53291 7.26775C6.45637 7.11832 6.35115 6.98543 6.22325 6.87666C6.09536 6.76789 5.94729 6.68538 5.78751 6.63384C5.62772 6.5823 5.45935 6.56273 5.292 6.57626C5.12466 6.58979 4.96162 6.63614 4.81219 6.71268C4.66275 6.78922 4.52986 6.89444 4.4211 7.02234C3.495 8.11268 2.89281 9.44062 2.68278 10.8557C2.47275 12.2707 2.66327 13.7163 3.23275 15.0287C3.33217 15.2571 3.49615 15.4515 3.70456 15.588C3.91296 15.7244 4.1567 15.7971 4.40582 15.7969Z" fill="var(--fill-0, #2C2C2C)" id="Vector_2"/>
<path d="M23.4892 17.3279L21.7203 15.5459C21.4923 15.3157 21.1852 15.1809 20.8614 15.1688C20.5376 15.1567 20.2214 15.2684 19.9769 15.481C19.7324 15.6936 19.5779 15.9913 19.5449 16.3137C19.5119 16.636 19.6028 16.9588 19.7992 17.2166H18.0598C17.7252 17.2235 17.4067 17.3612 17.1726 17.6003C16.9384 17.8393 16.8073 18.1606 16.8073 18.4952C16.8073 18.8298 16.9384 19.1511 17.1726 19.3901C17.4067 19.6292 17.7252 19.7669 18.0598 19.7738H19.7981C19.6025 20.0318 19.5123 20.3544 19.5458 20.6764C19.5792 20.9983 19.7338 21.2955 19.9782 21.5078C20.2227 21.72 20.5386 21.8314 20.8621 21.8193C21.1855 21.8073 21.4923 21.6727 21.7203 21.4429L23.4886 19.6609C23.6517 19.5135 23.7821 19.3335 23.8713 19.1326C23.9605 18.9316 24.0066 18.7142 24.0066 18.4944C24.0066 18.2745 23.9605 18.0571 23.8713 17.8562C23.7821 17.6553 23.6517 17.4753 23.4886 17.3279H23.4892Z" fill="var(--fill-0, #2C2C2C)" id="Vector_3"/>
</g>
<defs>
<clipPath id="clip0_0_837">
<rect fill="white" height="24" width="24"/>
</clipPath>
</defs>
</svg>