<?xml version="1.0" encoding="utf-8"?>
<svg xmlns="http://www.w3.org/2000/svg" fill="none" height="100%" overflow="visible" preserveAspectRatio="none" style="display: block;" viewBox="0 0 24 24" width="100%">
<g clip-path="url(#clip0_0_844)" id="Frame">
<path d="M11.3517 16.1623H12.6661V12.5775H15.972V11.303H12.6661V7.71822H11.3517V11.303H8.08559V12.5775H11.3517V16.1623Z" fill="var(--fill-0, #E8762D)" id="Vector"/>
<path d="M5.25762 21.3402H6.37288V18.1538H9.32033V17.158H6.37288V13.9318H5.25762V17.158H2.31017V18.1538H5.25762V21.3402Z" fill="var(--fill-0, #C72037)" id="Vector_2"/>
<path d="M17.6449 9.82924H18.7602V6.6428H21.7474V5.68687H18.7602V2.4606H17.6449V5.68687H14.6974V6.6428H17.6449V9.82924Z" fill="var(--fill-0, #5B879B)" id="Vector_3"/>
<path d="M11.5508 23.8496H12.5068V21.5792H14.5381V20.7428H12.5068V18.4725H11.5508V20.7428H9.55931V21.5792H11.5508V23.8496Z" fill="var(--fill-0, #5C6692)" id="Vector_4"/>
<path d="M5.29745 9.82924H6.33305V6.60297H9.32033V5.68687H6.33305V2.4606H5.29745V5.68687H2.31017V6.60297H5.29745V9.82924Z" fill="var(--fill-0, #EB9129)" id="Vector_5"/>
<path d="M21.0305 14.6089H21.9864V12.3784H24.0178V11.5021H21.9864V9.27161H21.0305V11.5021H19.039V12.3784H21.0305V14.6089Z" fill="var(--fill-0, #5C6692)" id="Vector_6"/>
<path d="M17.6449 21.3402H18.7602V18.1538H21.7474V17.158H18.7602V13.9318H17.6449V17.158H14.6974V18.1538H17.6449V21.3402Z" fill="var(--fill-0, #1F457E)" id="Vector_7"/>
<path d="M14.3788 3.01823V2.34111H12.3873V0.150434H11.6703V2.34111H9.67881V3.01823H11.6703V5.2089H12.3873V3.01823H14.3788ZM1.99152 14.4496H2.70847V12.2589H4.7V11.5818H2.70847V9.43093H1.99152V11.5818H1.60933e-08V12.2987L1.99152 12.2589V14.4496Z" fill="var(--fill-0, #7199A6)" id="Vector_8"/>
</g>
<defs>
<clipPath id="clip0_0_844">
<rect fill="white" height="24" width="24"/>
</clipPath>
</defs>
</svg>