<?xml version="1.0" encoding="utf-8"?>
<svg xmlns="http://www.w3.org/2000/svg" fill="none" height="100%" overflow="visible" preserveAspectRatio="none" style="display: block;" viewBox="0 0 24 24" width="100%">
<g clip-path="url(#clip0_0_840)" id="Frame">
<path d="M0.87027 18.257C0.62227 18.639 0.34027 19.132 0.10727 19.502C0.00498173 19.6742 -0.0256089 19.8796 0.0220835 20.0741C0.0697758 20.2687 0.191937 20.4367 0.36227 20.542L5.32727 23.596C5.41357 23.6492 5.50961 23.6848 5.60979 23.7005C5.70997 23.7163 5.81228 23.7119 5.91076 23.6877C6.00924 23.6635 6.10191 23.62 6.18338 23.5596C6.26485 23.4992 6.33348 23.4232 6.38527 23.336C6.58427 23.004 6.83927 22.573 7.11827 22.115C9.08527 18.868 11.0633 19.262 14.6263 20.969L19.5833 23.306C19.6756 23.35 19.7758 23.375 19.878 23.3796C19.9802 23.3841 20.0822 23.3681 20.1781 23.3325C20.274 23.2969 20.3617 23.2423 20.4361 23.1722C20.5105 23.102 20.5701 23.0176 20.6113 22.924L22.9753 17.578C23.0553 17.3945 23.0601 17.1869 22.9887 16.9999C22.9173 16.8129 22.7753 16.6614 22.5933 16.578C20.9347 15.7986 19.2797 15.0116 17.6283 14.217C10.9113 10.97 5.22427 11.185 0.87027 18.257ZM23.1313 5.743C23.3803 5.338 23.6623 4.868 23.8953 4.493C23.9956 4.32124 24.025 4.11712 23.9772 3.92403C23.9294 3.73094 23.8082 3.56411 23.6393 3.459L18.6753 0.404C18.589 0.350753 18.4929 0.315219 18.3927 0.299472C18.2926 0.283725 18.1903 0.288078 18.0918 0.312279C17.9933 0.336479 17.9006 0.380043 17.8192 0.440429C17.7377 0.500815 17.6691 0.576816 17.6173 0.664C17.377 1.07496 17.1323 1.48332 16.8833 1.889C14.9173 5.135 12.9383 4.739 9.37527 3.035L4.43727 0.694C4.34499 0.650158 4.24486 0.625268 4.1428 0.620802C4.04073 0.616337 3.93881 0.632387 3.84306 0.668003C3.7473 0.703619 3.65967 0.758077 3.58533 0.828156C3.51099 0.898235 3.45147 0.982512 3.41027 1.076L1.04627 6.422C0.966231 6.6055 0.961413 6.81308 1.03285 7.00009C1.10429 7.1871 1.24628 7.3386 1.42827 7.422C2.46727 7.912 4.53327 8.889 6.39327 9.783C13.0913 13.029 18.7853 12.812 23.1313 5.743Z" fill="var(--fill-0, #1296DB)" id="Vector"/>
</g>
<defs>
<clipPath id="clip0_0_840">
<rect fill="white" height="24" width="24"/>
</clipPath>
</defs>
</svg>