<?xml version="1.0" encoding="utf-8"?>
<svg xmlns="http://www.w3.org/2000/svg" fill="none" height="100%" overflow="visible" preserveAspectRatio="none" style="display: block;" viewBox="0 0 24 24" width="100%">
<g id="Frame">
<path d="M6.88502 4.58248C7.74452 4.58248 8.44652 3.87448 8.44652 3.00599C8.44497 2.59108 8.28039 2.1934 7.98827 1.89876C7.69614 1.60411 7.2999 1.43611 6.88502 1.43099C6.02553 1.43099 5.32353 2.13899 5.32353 3.00749C5.32353 3.87448 6.02553 4.58248 6.88502 4.58248ZM17.115 4.58248C17.9745 4.58248 18.6765 3.87448 18.6765 3.00599C18.6765 2.13899 17.9745 1.42949 17.115 1.42949C16.2555 1.42949 15.5535 2.13749 15.5535 3.00599C15.5535 3.87448 16.2555 4.58248 17.115 4.58248ZM12 3.15149C12.8595 3.15149 13.5615 2.44349 13.5615 1.57499C13.5615 0.694497 12.8595 0 12 0C11.1405 0 10.4385 0.707997 10.4385 1.57649C10.4385 2.44349 11.1405 3.15149 12 3.15149ZM15.153 15.5999C16.5285 14.1824 17.9475 12.7229 19.0365 11.1465C20.1975 9.46946 20.8425 7.87947 21 6.23097C21.0033 6.15356 20.9881 6.07647 20.9558 6.00605C20.9234 5.93564 20.8748 5.87392 20.814 5.82597C20.7293 5.75626 20.6221 5.71997 20.5125 5.72397C20.4555 5.72397 20.3985 5.73897 20.34 5.75247C19.2795 6.15747 18.219 6.47547 17.2305 6.69297C17.1341 6.71732 17.0449 6.76412 16.97 6.82956C16.8952 6.89499 16.8369 6.9772 16.8 7.06947C16.083 9.03596 14.2635 10.9155 12.3585 12.8819C12.3138 12.9339 12.2589 12.9761 12.1972 13.006C12.1356 13.0359 12.0685 13.0529 12 13.0559C11.9309 13.0562 11.8627 13.0406 11.8006 13.0105C11.7385 12.9803 11.684 12.9364 11.6415 12.8819C9.73651 10.9155 7.91702 9.05096 7.20002 7.06947C7.16286 6.97748 7.1045 6.89557 7.02969 6.8304C6.95488 6.76524 6.86574 6.71866 6.76952 6.69447C5.71339 6.4444 4.67469 6.12573 3.66004 5.74047C3.60304 5.71047 3.54604 5.71047 3.48904 5.71047C3.37973 5.70833 3.2731 5.74441 3.18754 5.81247C3.12392 5.86442 3.07379 5.93095 3.04141 6.00643C3.00902 6.0819 2.99535 6.16408 3.00154 6.24597C3.15904 7.87947 3.80404 9.48446 4.96503 11.1615C6.05403 12.7379 7.47302 14.1974 8.84851 15.6149C11.37 18.2174 13.7625 20.6759 13.9785 23.5229C13.9935 23.7824 14.208 23.9864 14.466 23.9849H17.4315C17.4982 23.9846 17.5642 23.9707 17.6254 23.944C17.6866 23.9173 17.7418 23.8784 17.7874 23.8297C17.833 23.781 17.8682 23.7234 17.8909 23.6606C17.9135 23.5978 17.9231 23.531 17.919 23.4644C17.8185 21.5564 17.1165 19.6484 15.741 17.6234C15.4545 17.2034 15.153 16.7849 14.8245 16.3799C14.6955 16.2209 14.7525 16.0184 14.853 15.9029L15.153 15.5999ZM8.80501 17.8409C8.76118 17.794 8.7079 17.7569 8.64869 17.7321C8.58949 17.7073 8.52569 17.6953 8.46152 17.6969C8.38097 17.6998 8.30236 17.7224 8.23254 17.7626C8.16273 17.8029 8.10384 17.8596 8.06102 17.9279C6.81452 19.8509 6.16953 21.6584 6.08403 23.4794C6.08403 23.6099 6.12753 23.7539 6.21303 23.8409C6.25716 23.892 6.31205 23.9328 6.37376 23.9603C6.43547 23.9878 6.50248 24.0013 6.57002 23.9999H9.53551C9.6604 23.9997 9.78048 23.9517 9.87112 23.8658C9.96177 23.7799 10.0161 23.6626 10.023 23.5379C10.095 22.6559 10.353 21.7889 10.854 20.8634C10.9173 20.7458 10.9456 20.6125 10.9355 20.4793C10.9254 20.3461 10.8773 20.2186 10.797 20.1119C10.1763 19.318 9.51125 18.5598 8.80501 17.8409Z" fill="var(--fill-0, #0193DA)" id="Vector"/>
<path d="M11.6415 10.4385C11.6871 10.482 11.741 10.5161 11.8 10.5385C11.859 10.5609 11.9219 10.5712 11.985 10.569C12.0705 10.569 12.2145 10.554 12.3285 10.4385C13.0656 9.70485 13.6544 8.83599 14.0625 7.87947C14.0918 7.82137 14.1068 7.75705 14.106 7.69197C14.1076 7.63237 14.0973 7.57305 14.0758 7.51746C14.0543 7.46186 14.0219 7.4111 13.9806 7.36812C13.9393 7.32513 13.8899 7.29078 13.8352 7.26707C13.7805 7.24335 13.7216 7.23074 13.662 7.22997C13.476 7.22847 12.9315 7.28697 12 7.28697C11.0685 7.28697 10.524 7.22847 10.3095 7.22847C10.19 7.23275 10.0768 7.28336 9.99398 7.36958C9.91111 7.4558 9.86504 7.57088 9.86551 7.69047C9.86551 7.77747 9.89401 7.83447 9.90901 7.87797C10.3153 8.83559 10.9037 9.70519 11.6415 10.4385Z" fill="var(--fill-0, #0193DA)" id="Vector_2"/>
<path d="M6.88493 4.58248C7.74443 4.58248 8.44643 3.87448 8.44643 3.00599C8.44489 2.59108 8.2803 2.1934 7.98818 1.89876C7.69606 1.60411 7.29981 1.43611 6.88493 1.43099C6.02544 1.43099 5.32344 2.13899 5.32344 3.00749C5.32344 3.87448 6.02544 4.58248 6.88493 4.58248ZM17.1149 4.58248C17.9744 4.58248 18.6764 3.87448 18.6764 3.00599C18.6764 2.13899 17.9744 1.42949 17.1149 1.42949C16.2554 1.42949 15.5534 2.13749 15.5534 3.00599C15.5534 3.87448 16.2554 4.58248 17.1149 4.58248ZM11.9999 3.15149C12.8594 3.15149 13.5614 2.44349 13.5614 1.57499C13.5614 0.694497 12.8594 0 11.9999 0C11.1404 0 10.4384 0.707997 10.4384 1.57649C10.4384 2.44349 11.1404 3.15149 11.9999 3.15149ZM15.1529 15.5999C16.5284 14.1824 17.9474 12.7229 19.0364 11.1465C20.1974 9.46946 20.8424 7.87947 20.9999 6.23097C21.0032 6.15356 20.988 6.07647 20.9557 6.00605C20.9234 5.93564 20.8747 5.87392 20.8139 5.82597C20.7292 5.75626 20.622 5.71997 20.5124 5.72397C20.4554 5.72397 20.3984 5.73897 20.3399 5.75247C19.2794 6.15747 18.2189 6.47547 17.2304 6.69297C17.134 6.71732 17.0448 6.76412 16.97 6.82956C16.8951 6.89499 16.8369 6.9772 16.7999 7.06947C16.0829 9.03596 14.2634 10.9155 12.3584 12.8819C12.3137 12.9339 12.2588 12.9761 12.1971 13.006C12.1355 13.0359 12.0684 13.0529 11.9999 13.0559C11.9308 13.0562 11.8626 13.0406 11.8005 13.0105C11.7384 12.9803 11.684 12.9364 11.6414 12.8819C9.73642 10.9155 7.91693 9.05096 7.19993 7.06947C7.16277 6.97748 7.10441 6.89557 7.0296 6.8304C6.95479 6.76524 6.86565 6.71866 6.76944 6.69447C5.7133 6.4444 4.6746 6.12573 3.65995 5.74047C3.60295 5.71047 3.54595 5.71047 3.48895 5.71047C3.37964 5.70833 3.27301 5.74441 3.18745 5.81247C3.12383 5.86442 3.0737 5.93095 3.04132 6.00643C3.00894 6.0819 2.99526 6.16408 3.00145 6.24597C3.15895 7.87947 3.80395 9.48446 4.96494 11.1615C6.05394 12.7379 7.47293 14.1974 8.84843 15.6149C11.3699 18.2174 13.7624 20.6759 13.9784 23.5229C13.9934 23.7824 14.2079 23.9864 14.4659 23.9849H17.4314C17.4982 23.9846 17.5642 23.9707 17.6254 23.944C17.6866 23.9173 17.7417 23.8784 17.7873 23.8297C17.8329 23.781 17.8682 23.7234 17.8908 23.6606C17.9134 23.5978 17.923 23.531 17.9189 23.4644C17.8184 21.5564 17.1164 19.6484 15.7409 17.6234C15.4544 17.2034 15.1529 16.7849 14.8244 16.3799C14.6954 16.2209 14.7524 16.0184 14.8529 15.9029L15.1529 15.5999ZM8.80493 17.8409C8.76109 17.794 8.70781 17.7569 8.64861 17.7321C8.5894 17.7073 8.52561 17.6953 8.46143 17.6969C8.38088 17.6998 8.30227 17.7224 8.23245 17.7626C8.16264 17.8029 8.10375 17.8596 8.06093 17.9279C6.81444 19.8509 6.16944 21.6584 6.08394 23.4794C6.08394 23.6099 6.12744 23.7539 6.21294 23.8409C6.25708 23.892 6.31196 23.9328 6.37367 23.9603C6.43538 23.9878 6.5024 24.0013 6.56994 23.9999H9.53542C9.66031 23.9997 9.78039 23.9517 9.87104 23.8658C9.96168 23.7799 10.016 23.6626 10.0229 23.5379C10.0949 22.6559 10.3529 21.7889 10.8539 20.8634C10.9172 20.7458 10.9455 20.6125 10.9354 20.4793C10.9253 20.3461 10.8772 20.2186 10.7969 20.1119C10.1762 19.318 9.51116 18.5598 8.80493 17.8409Z" fill="var(--fill-0, #0193DA)" id="Vector_3"/>
<path d="M11.6417 10.4385C11.6874 10.4821 11.7413 10.5161 11.8003 10.5385C11.8593 10.5609 11.9221 10.5713 11.9852 10.569C12.0707 10.569 12.2147 10.554 12.3287 10.4385C13.0658 9.70489 13.6546 8.83604 14.0627 7.87951C14.0921 7.82142 14.107 7.7571 14.1062 7.69201C14.1078 7.63242 14.0975 7.5731 14.076 7.51751C14.0545 7.46191 14.0221 7.41115 13.9808 7.36816C13.9395 7.32518 13.8901 7.29083 13.8354 7.26712C13.7807 7.2434 13.7218 7.23079 13.6622 7.23002C13.4762 7.22852 12.9317 7.28702 12.0002 7.28702C11.0687 7.28702 10.5242 7.22852 10.3097 7.22852C10.1902 7.2328 10.0771 7.28341 9.9942 7.36963C9.91133 7.45585 9.86526 7.57093 9.86573 7.69051C9.86573 7.77751 9.89423 7.83451 9.90923 7.87801C10.3155 8.83564 10.9039 9.70524 11.6417 10.4385Z" fill="var(--fill-0, #0193DA)" id="Vector_4"/>
<path d="M6.88493 4.58248C7.74443 4.58248 8.44643 3.87448 8.44643 3.00599C8.44489 2.59108 8.2803 2.1934 7.98818 1.89876C7.69606 1.60411 7.29981 1.43611 6.88493 1.43099C6.02544 1.43099 5.32344 2.13899 5.32344 3.00749C5.32344 3.87448 6.02544 4.58248 6.88493 4.58248ZM17.1149 4.58248C17.9744 4.58248 18.6764 3.87448 18.6764 3.00599C18.6764 2.13899 17.9744 1.42949 17.1149 1.42949C16.2554 1.42949 15.5534 2.13749 15.5534 3.00599C15.5534 3.87448 16.2554 4.58248 17.1149 4.58248ZM11.9999 3.15149C12.8594 3.15149 13.5614 2.44349 13.5614 1.57499C13.5614 0.694497 12.8594 0 11.9999 0C11.1404 0 10.4384 0.707997 10.4384 1.57649C10.4384 2.44349 11.1404 3.15149 11.9999 3.15149ZM15.1529 15.5999C16.5284 14.1824 17.9474 12.7229 19.0364 11.1465C20.1974 9.46946 20.8424 7.87947 20.9999 6.23097C21.0032 6.15356 20.988 6.07647 20.9557 6.00605C20.9234 5.93564 20.8747 5.87392 20.8139 5.82597C20.7292 5.75626 20.622 5.71997 20.5124 5.72397C20.4554 5.72397 20.3984 5.73897 20.3399 5.75247C19.2794 6.15747 18.2189 6.47547 17.2304 6.69297C17.134 6.71732 17.0448 6.76412 16.97 6.82956C16.8951 6.89499 16.8369 6.9772 16.7999 7.06947C16.0829 9.03596 14.2634 10.9155 12.3584 12.8819C12.3137 12.9339 12.2588 12.9761 12.1971 13.006C12.1355 13.0359 12.0684 13.0529 11.9999 13.0559C11.9308 13.0562 11.8626 13.0406 11.8005 13.0105C11.7384 12.9803 11.684 12.9364 11.6414 12.8819C9.73642 10.9155 7.91693 9.05096 7.19993 7.06947C7.16277 6.97748 7.10441 6.89557 7.0296 6.8304C6.95479 6.76524 6.86565 6.71866 6.76944 6.69447C5.7133 6.4444 4.6746 6.12573 3.65995 5.74047C3.60295 5.71047 3.54595 5.71047 3.48895 5.71047C3.37964 5.70833 3.27301 5.74441 3.18745 5.81247C3.12383 5.86442 3.0737 5.93095 3.04132 6.00643C3.00894 6.0819 2.99526 6.16408 3.00145 6.24597C3.15895 7.87947 3.80395 9.48446 4.96494 11.1615C6.05394 12.7379 7.47293 14.1974 8.84843 15.6149C11.3699 18.2174 13.7624 20.6759 13.9784 23.5229C13.9934 23.7824 14.2079 23.9864 14.4659 23.9849H17.4314C17.4982 23.9846 17.5642 23.9707 17.6254 23.944C17.6866 23.9173 17.7417 23.8784 17.7873 23.8297C17.8329 23.781 17.8682 23.7234 17.8908 23.6606C17.9134 23.5978 17.923 23.531 17.9189 23.4644C17.8184 21.5564 17.1164 19.6484 15.7409 17.6234C15.4544 17.2034 15.1529 16.7849 14.8244 16.3799C14.6954 16.2209 14.7524 16.0184 14.8529 15.9029L15.1529 15.5999ZM8.80493 17.8409C8.76109 17.794 8.70781 17.7569 8.64861 17.7321C8.5894 17.7073 8.52561 17.6953 8.46143 17.6969C8.38088 17.6998 8.30227 17.7224 8.23245 17.7626C8.16264 17.8029 8.10375 17.8596 8.06093 17.9279C6.81444 19.8509 6.16944 21.6584 6.08394 23.4794C6.08394 23.6099 6.12744 23.7539 6.21294 23.8409C6.25708 23.892 6.31196 23.9328 6.37367 23.9603C6.43538 23.9878 6.5024 24.0013 6.56994 23.9999H9.53542C9.66031 23.9997 9.78039 23.9517 9.87104 23.8658C9.96168 23.7799 10.016 23.6626 10.0229 23.5379C10.0949 22.6559 10.3529 21.7889 10.8539 20.8634C10.9172 20.7458 10.9455 20.6125 10.9354 20.4793C10.9253 20.3461 10.8772 20.2186 10.7969 20.1119C10.1762 19.318 9.51116 18.5598 8.80493 17.8409Z" fill="var(--fill-0, #0193DA)" id="Vector_5"/>
<path d="M11.6417 10.4385C11.6874 10.4821 11.7413 10.5161 11.8003 10.5385C11.8593 10.5609 11.9221 10.5713 11.9852 10.569C12.0707 10.569 12.2147 10.554 12.3287 10.4385C13.0658 9.70489 13.6546 8.83604 14.0627 7.87951C14.0921 7.82142 14.107 7.7571 14.1062 7.69201C14.1078 7.63242 14.0975 7.5731 14.076 7.51751C14.0545 7.46191 14.0221 7.41115 13.9808 7.36816C13.9395 7.32518 13.8901 7.29083 13.8354 7.26712C13.7807 7.2434 13.7218 7.23079 13.6622 7.23002C13.4762 7.22852 12.9317 7.28702 12.0002 7.28702C11.0687 7.28702 10.5242 7.22852 10.3097 7.22852C10.1902 7.2328 10.0771 7.28341 9.9942 7.36963C9.91133 7.45585 9.86526 7.57093 9.86573 7.69051C9.86573 7.77751 9.89423 7.83451 9.90923 7.87801C10.3155 8.83564 10.9039 9.70524 11.6417 10.4385Z" fill="var(--fill-0, #0193DA)" id="Vector_6"/>
</g>
</svg>