<?xml version="1.0" encoding="utf-8"?>
<svg xmlns="http://www.w3.org/2000/svg" fill="none" height="100%" overflow="visible" preserveAspectRatio="none" style="display: block;" viewBox="0 0 24 24" width="100%">
<g id="Frame">
<path d="M8.31525 18.7447C7.51624 18.7447 6.86908 19.3918 6.86908 20.1909C6.86908 20.9899 7.51624 21.637 8.31525 21.637C9.11427 21.637 9.76143 20.9899 9.76143 20.1909C9.76143 19.3918 9.11425 18.7447 8.31525 18.7447ZM18.4385 18.7447C17.6394 18.7447 16.9923 19.3918 16.9923 20.1909C16.9923 20.9899 17.6394 21.637 18.4385 21.637C19.2375 21.637 19.8846 20.9899 19.8846 20.1909C19.8846 19.3918 19.2375 18.7447 18.4385 18.7447ZM19.8731 18.0216H8.12799C7.08602 18.0216 6.16986 17.1973 6.0426 16.1452L4.81624 7.51154L4.11846 3.47673C4.07507 3.12458 3.75403 2.8368 3.4402 2.8368H2.51898C2.11985 2.8368 1.7959 2.51285 1.7959 2.11371C1.7959 1.71457 2.11985 1.39062 2.51898 1.39062H3.4402C4.49517 1.39062 5.42145 2.21495 5.54945 3.26704L6.24577 7.28667L7.47719 15.9572C7.51767 16.2927 7.82138 16.5754 8.12796 16.5754H19.873C20.2729 16.5754 20.5961 16.8987 20.5961 17.2985C20.5962 17.6984 20.2729 18.0216 19.8731 18.0216ZM9.03182 15.1293C8.65654 15.1293 8.33909 14.84 8.31163 14.459C8.28199 14.0605 8.58135 13.7142 8.97905 13.6853L18.7884 12.9622C19.1485 12.96 19.4522 12.6773 19.492 12.3555L20.6309 5.83906C20.6598 5.5961 20.5925 5.33 20.4472 5.16514C20.3539 5.05956 20.2368 5.00605 20.1001 5.00605H7.58058C7.18145 5.00605 6.8575 4.68211 6.8575 4.28297C6.8575 3.88383 7.18145 3.55988 7.58058 3.55988H20.1001C20.6525 3.55988 21.1601 3.78909 21.5296 4.20632C21.9519 4.68283 22.1457 5.35459 22.0611 6.05091L20.9215 12.5681C20.7986 13.5818 19.8832 14.4062 18.8412 14.4062L9.08535 15.1271C9.06726 15.1285 9.04918 15.1293 9.03182 15.1293Z" fill="var(--fill-0, #272636)" id="Vector"/>
</g>
</svg>