<?xml version="1.0" encoding="utf-8"?>
<svg xmlns="http://www.w3.org/2000/svg" fill="none" height="100%" overflow="visible" preserveAspectRatio="none" style="display: block;" viewBox="0 0 24 24" width="100%">
<g id="Frame">
<path d="M20.1986 1.8019L21.743 3.34745C22.3573 3.96193 22.7024 4.79524 22.7024 5.66412C22.7024 6.533 22.3573 7.36631 21.743 7.9808L18.9742 10.7508L22.0401 13.8167C22.3444 14.121 22.5858 14.4823 22.7505 14.8798C22.9152 15.2774 23 15.7036 23 16.1339C23 16.5643 22.9152 16.9904 22.7505 17.388C22.5858 17.7856 22.3444 18.1469 22.0401 18.4512L18.9513 21.5401C18.647 21.8444 18.2857 22.0858 17.8882 22.2505C17.4906 22.4152 17.0644 22.5 16.6341 22.5C16.2037 22.5 15.7776 22.4152 15.38 22.2505C14.9824 22.0858 14.6212 21.8444 14.3169 21.5401L11.251 18.4741L8.84812 20.8771C8.69558 21.0294 8.50138 21.1331 8.28999 21.1752L2.4968 22.3352C2.3205 22.3704 2.13826 22.3614 1.96623 22.3092C1.79421 22.2571 1.63773 22.1632 1.51067 22.036C1.38361 21.9089 1.2899 21.7523 1.23786 21.5802C1.18582 21.4082 1.17705 21.2259 1.21234 21.0496L2.3701 15.2574C2.41275 15.0463 2.51687 14.8525 2.66937 14.7004L15.5642 1.80081C15.8685 1.49648 16.2298 1.25506 16.6274 1.09035C17.0249 0.925647 17.4511 0.840873 17.8814 0.840873C18.3118 0.840873 18.7379 0.925647 19.1355 1.09035C19.5331 1.25506 19.8943 1.49648 20.1986 1.80081V1.8019ZM17.8153 11.9085L12.4088 17.3152L13.3514 18.2578L14.5102 17.1C14.6566 16.9548 14.8523 16.8701 15.0584 16.8629C15.2644 16.8556 15.4657 16.9263 15.6219 17.0609C15.7781 17.1955 15.8778 17.384 15.9011 17.5888C15.9245 17.7937 15.8697 17.9998 15.7477 18.1661L15.6691 18.2578L14.5113 19.4156L15.4758 20.3823C15.7625 20.6689 16.1453 20.8391 16.5502 20.8599C16.9551 20.8807 17.3533 20.7506 17.6679 20.4948L17.7924 20.3823L20.8823 17.2923C21.169 17.0056 21.3392 16.6227 21.3599 16.2178C21.3807 15.8129 21.2506 15.4147 20.9948 15.1001L20.8823 14.9756L17.8153 11.9085ZM13.8265 5.85745L3.94401 15.7402L2.97957 20.568L7.80613 19.6013L17.6886 9.71858L13.8265 5.85745ZM9.5264 1.31257L9.68368 1.46003L12.7954 4.57187L11.6377 5.72966L8.52482 2.61782C8.23811 2.33115 7.8553 2.16097 7.45039 2.14019C7.04549 2.11941 6.64726 2.2495 6.33272 2.50532L6.2082 2.61782L3.11828 5.70781C2.83162 5.99453 2.66144 6.37735 2.64066 6.78227C2.61988 7.18718 2.74997 7.58541 3.00578 7.89997L3.11828 8.02449L4.08381 8.99004L6.01488 7.05893C6.16104 6.91236 6.35728 6.82656 6.56413 6.81878C6.77098 6.811 6.97311 6.88182 7.12987 7.017C7.28663 7.15218 7.38641 7.3417 7.40913 7.54745C7.43186 7.7532 7.37585 7.95993 7.25237 8.12607L7.17373 8.21782L5.24267 10.1489L6.23114 11.1363L5.07228 12.2941L1.95942 9.18337C1.3713 8.59508 1.02893 7.80512 1.00175 6.97371C0.974572 6.14229 1.26462 5.33166 1.81306 4.70621L1.96052 4.54893L5.04934 1.46003C5.63748 0.871736 6.42734 0.52916 7.25874 0.501777C8.09014 0.474395 8.90083 0.764256 9.5264 1.31257ZM16.7242 2.96079L14.9854 4.69857L18.8475 8.56078L20.5841 6.823C20.7364 6.67085 20.8572 6.49019 20.9396 6.29135C21.022 6.0925 21.0644 5.87937 21.0644 5.66412C21.0644 5.44888 21.022 5.23574 20.9396 5.0369C20.8572 4.83805 20.7364 4.65739 20.5841 4.50524L19.0397 2.96079C18.7325 2.65397 18.3161 2.48164 17.882 2.48164C17.4478 2.48164 17.0314 2.65397 16.7242 2.96079Z" fill="var(--fill-0, black)" id="Vector"/>
</g>
</svg>