<?xml version="1.0" encoding="utf-8"?>
<svg xmlns="http://www.w3.org/2000/svg" fill="none" height="100%" overflow="visible" preserveAspectRatio="none" style="display: block;" viewBox="0 0 24 24" width="100%">
<g clip-path="url(#clip0_0_837)" id="Frame">
<path d="M12.0497 16.3989V22.1069C12.0497 22.2072 12.0881 22.3078 12.1647 22.3846C12.201 22.4213 12.2443 22.4503 12.2919 22.4701C12.3396 22.4899 12.3907 22.5001 12.4423 22.5H15.3289C15.4331 22.4999 15.533 22.4584 15.6066 22.3848C15.6803 22.3111 15.7217 22.2112 15.7218 22.107V14.5005L12.7866 17.0269L12.0497 16.3989ZM-0.287279 22.1068C-0.287279 22.2071 -0.248735 22.3082 -0.171917 22.3845C-0.135572 22.4212 -0.0923125 22.4502 -0.0446465 22.47C0.00301954 22.4898 0.054143 22.5 0.105759 22.4999H2.99173C3.04333 22.5 3.09443 22.4898 3.14208 22.47C3.18972 22.4502 3.23296 22.4212 3.26928 22.3845C3.30588 22.3481 3.33491 22.3049 3.35472 22.2572C3.37452 22.2095 3.3847 22.1584 3.38467 22.1068V16.2841L-0.287279 19.3129V22.1068ZM5.87995 14.2246V22.1068C5.87995 22.1584 5.89014 22.2095 5.90993 22.2572C5.92973 22.3048 5.95875 22.3481 5.99532 22.3845C6.03173 22.4211 6.07501 22.4501 6.12267 22.4699C6.17032 22.4897 6.22141 22.4999 6.27302 22.4999H9.16024C9.26116 22.4999 9.36159 22.4613 9.43791 22.3845C9.47447 22.3481 9.50346 22.3048 9.52324 22.2572C9.54302 22.2095 9.55318 22.1584 9.55315 22.1068V14.2738L7.71782 12.7114L5.87995 14.2246ZM18.2182 22.1068C18.218 22.1584 18.228 22.2096 18.2477 22.2573C18.2673 22.305 18.2962 22.3484 18.3327 22.3849C18.3692 22.4215 18.4125 22.4504 18.4602 22.4701C18.5079 22.4899 18.559 22.5 18.6106 22.4999H21.4985C21.5501 22.5 21.6012 22.4898 21.6488 22.47C21.6965 22.4502 21.7397 22.4212 21.7761 22.3845C21.8126 22.3481 21.8416 22.3048 21.8614 22.2572C21.8812 22.2095 21.8914 22.1584 21.8914 22.1068V9.18873L18.2182 12.3515V22.1068H18.2182ZM17.5849 2.5C17.5331 2.5 17.4838 2.53001 17.4634 2.58111C17.4423 2.63169 17.4559 2.68755 17.4921 2.7242L20.2524 5.43756L12.7866 11.8659L7.71782 7.54871L-0.308242 14.1694V17.0294L7.71794 10.4092L12.7866 14.7253L21.8049 6.96222L24.0851 9.20491C24.1037 9.22289 24.1272 9.23502 24.1526 9.23982C24.178 9.24462 24.2043 9.24187 24.2281 9.2319C24.2518 9.222 24.2721 9.20531 24.2863 9.18394C24.3006 9.16256 24.3082 9.13745 24.3082 9.11176V2.63032C24.3082 2.61315 24.3048 2.59615 24.2981 2.58031C24.2915 2.56446 24.2818 2.55008 24.2697 2.53797C24.2575 2.52587 24.243 2.51629 24.2271 2.50977C24.2113 2.50326 24.1942 2.49994 24.1771 2.5H17.5849Z" fill="var(--fill-0, #2C2C2C)" id="Vector"/>
</g>
<defs>
<clipPath id="clip0_0_837">
<rect fill="white" height="24" width="24"/>
</clipPath>
</defs>
</svg>